<?xml version="1.0" encoding="UTF-8"?>
<svg id="Layer_2" data-name="Layer 2" xmlns="http://www.w3.org/2000/svg" viewBox="0 0 116.96 133.08">
  <defs>
    <style>
      .cls-1 {
        fill: #e8a656;
        stroke-width: 0px;
      }
    </style>
  </defs>
  <g id="Capa_1" data-name="Capa 1">
    <g>
      <path class="cls-1" d="M113.97,82.39c1.86-2.07,2.99-4.81,2.99-7.8,0-6.45-5.25-11.7-11.7-11.7h-22.7c2.25-6.82,3.21-15.88,3.21-19.76v-3.9c0-8.6-7-15.59-15.59-15.59h-3.9c-1.79,0-3.35,1.22-3.78,2.95l-2.12,8.5c-2.98,11.9-12.42,25.03-22.2,27.41-1.71-4.34-5.94-7.41-10.88-7.41H3.9c-2.15,0-3.9,1.75-3.9,3.9v70.18c0,2.15,1.75,3.9,3.9,3.9h23.39c4.65,0,8.67-2.73,10.56-6.67l13.4,4.47c4.38,1.46,8.94,2.2,13.56,2.2h32.66c6.45,0,11.7-5.25,11.7-11.7,0-1.52-.29-2.98-.82-4.31,4.96-1.35,8.62-5.9,8.62-11.29,0-2.99-1.13-5.73-2.99-7.8,1.86-2.07,2.99-4.81,2.99-7.8s-1.13-5.73-2.99-7.8ZM31.19,121.38c0,2.15-1.75,3.9-3.9,3.9H7.8v-62.38h19.49c2.15,0,3.9,1.75,3.9,3.9v54.58ZM97.47,86.29h7.8c2.15,0,3.9,1.75,3.9,3.9s-1.75,3.9-3.9,3.9h-7.8c-2.15,0-3.9,1.75-3.9,3.9s1.75,3.9,3.9,3.9h7.8c2.15,0,3.9,1.75,3.9,3.9s-1.75,3.9-3.9,3.9h-7.8c-2.15,0-3.9,1.75-3.9,3.9s1.75,3.9,3.9,3.9,3.9,1.75,3.9,3.9-1.75,3.9-3.9,3.9h-32.66c-3.78,0-7.51-.61-11.1-1.8l-14.72-4.91v-48.24c6.12-1.16,12.1-5.03,17.51-11.37,5.28-6.19,9.55-14.4,11.44-21.96l1.39-5.54h.86c4.3,0,7.8,3.5,7.8,7.8v3.9c0,5.23-1.64,15.28-3.73,19.76h-7.96c-2.15,0-3.9,1.75-3.9,3.9s1.75,3.9,3.9,3.9h38.99c2.15,0,3.9,1.75,3.9,3.9s-1.75,3.9-3.9,3.9h-7.8c-2.15,0-3.9,1.75-3.9,3.9s1.75,3.9,3.9,3.9Z"/>
      <path class="cls-1" d="M74.08,0c-2.15,0-3.9,1.75-3.9,3.9v8.06c0,2.15,1.75,3.9,3.9,3.9s3.9-1.75,3.9-3.9V3.9c0-2.15-1.75-3.9-3.9-3.9Z"/>
      <path class="cls-1" d="M57.53,17.19l-5.51-5.51c-1.52-1.52-3.99-1.52-5.51,0-1.52,1.52-1.52,3.99,0,5.51l5.51,5.51c1.52,1.52,3.99,1.52,5.51,0,1.52-1.52,1.52-3.99,0-5.51Z"/>
      <path class="cls-1" d="M101.64,11.68c-1.52-1.52-3.99-1.52-5.51,0l-5.51,5.51c-1.52,1.52-1.52,3.99,0,5.51,1.52,1.52,3.99,1.52,5.51,0l5.51-5.51c1.52-1.52,1.52-3.99,0-5.51Z"/>
    </g>
  </g>
</svg>