<?xml version="1.0" encoding="UTF-8"?>
<svg id="Layer_2" data-name="Layer 2" xmlns="http://www.w3.org/2000/svg" viewBox="0 0 127.37 127.37">
  <defs>
    <style>
      .cls-1 {
        fill: #b660b6;
        stroke-width: 0px;
      }
    </style>
  </defs>
  <g id="Capa_1" data-name="Capa 1">
    <g>
      <path class="cls-1" d="M108.72,18.65C96.69,6.62,80.69,0,63.68,0c-14.56,0-28.26,4.78-39.63,13.83-.81.64-.94,1.81-.3,2.62.64.81,1.81.94,2.62.3C37.08,8.23,49.98,3.73,63.68,3.73c16.02,0,31.07,6.24,42.4,17.56,11.32,11.32,17.56,26.38,17.56,42.4s-6.24,31.07-17.56,42.4c-11.32,11.32-26.38,17.56-42.4,17.56s-31.07-6.24-42.4-17.56C9.96,94.76,3.73,79.7,3.73,63.68s5.83-30.04,16.41-41.21c.71-.75.68-1.93-.07-2.63s-1.93-.68-2.63.07C6.19,31.78,0,47.33,0,63.68s6.62,33,18.65,45.03c12.03,12.03,28.02,18.65,45.03,18.65s33-6.62,45.03-18.65,18.65-28.02,18.65-45.03-6.62-33-18.65-45.03h0Z"/>
      <path class="cls-1" d="M81.94,106.75c-.95.4-1.39,1.5-.98,2.44.3.71.99,1.13,1.71,1.13.24,0,.49-.05.73-.15,9-3.84,16.67-10.17,22.17-18.32,5.64-8.35,8.62-18.1,8.62-28.17,0-9.64-2.73-19.01-7.89-27.11-.55-.86-1.44-1.42-2.46-1.53-1.02-.11-2.02.24-2.75.97l-7.27,7.27c-.73.73-.73,1.91,0,2.63.73.73,1.91.73,2.63,0l6.95-6.95c4.62,7.41,7.06,15.94,7.06,24.71,0,9.33-2.76,18.35-7.98,26.09-5.1,7.55-12.2,13.42-20.54,16.98h0Z"/>
      <path class="cls-1" d="M43.33,96.42c-.73-.73-1.91-.73-2.63,0l-4.68,4.68c-.73.73-1.08,1.73-.97,2.75.11,1.02.67,1.91,1.53,2.46,8.1,5.16,17.47,7.89,27.11,7.89,3.83,0,7.65-.43,11.35-1.29,1-.23,1.63-1.23,1.4-2.23-.23-1-1.23-1.63-2.23-1.4-3.43.79-6.96,1.19-10.51,1.19-8.77,0-17.31-2.44-24.71-7.06l4.36-4.36c.73-.73.73-1.91,0-2.63Z"/>
      <path class="cls-1" d="M90.79,21.06c-8.1-5.16-17.47-7.89-27.11-7.89,0,0,0,0,0,0-13.46,0-26.13,5.26-35.69,14.82-9.56,9.56-14.82,22.23-14.82,35.69,0,9.64,2.73,19.01,7.89,27.11.55.86,1.44,1.42,2.46,1.53.12.01.25.02.37.02.89,0,1.74-.35,2.38-.99l8.94-8.94c.73-.73.73-1.91,0-2.63-.73-.73-1.91-.73-2.63,0l-8.63,8.62c-4.62-7.41-7.06-15.94-7.06-24.71,0-12.46,4.88-24.2,13.73-33.06,8.85-8.85,20.59-13.73,33.06-13.73,8.77,0,17.31,2.44,24.71,7.06l-5.85,5.85c-.73.73-.73,1.91,0,2.63.73.73,1.91.73,2.63,0l6.17-6.17c.73-.73,1.08-1.73.97-2.75-.11-1.02-.67-1.91-1.53-2.46h0Z"/>
      <path class="cls-1" d="M85.75,46.76c-1.2,0-2.33.3-3.33.84v-9.45c0-3.89-3.16-7.05-7.05-7.05-1.23,0-2.39.32-3.4.87-.48-3.42-3.43-6.06-6.98-6.06-3.89,0-7.05,3.16-7.05,7.05v3.36c-.99-.53-2.12-.84-3.33-.84-3.89,0-7.05,3.16-7.05,7.05v14.36c-1.84-2.24-4.89-3.25-7.84-2.34-1.86.57-3.39,1.86-4.3,3.62-.92,1.77-1.1,3.87-.5,5.76l4.08,16.02s.01.04.02.06c1.17,4,3.2,7.97,5.7,11.18,4.16,5.33,11.13,8.96,19.11,9.98,1.48.19,2.96.28,4.41.28,2.24,0,4.45-.22,6.6-.67,1.82-.38,3.56-.91,5.17-1.58,8-3.33,12.78-11.14,12.78-20.88v-24.52c0-3.89-3.16-7.05-7.05-7.05h0ZM89.07,78.34c0,8.31-3.82,14.66-10.49,17.44-1.39.58-2.91,1.04-4.49,1.37-3.14.65-6.44.76-9.79.34-7.02-.89-13.08-4.02-16.64-8.57-2.22-2.84-4.01-6.35-5.06-9.9-.07-.26-.54-2.13-4.08-16.04-.01-.04-.02-.08-.03-.12-.31-.96-.22-2.04.25-2.95.45-.87,1.19-1.5,2.09-1.78,1.87-.57,3.82.4,4.48,2.23l3.01,12.28c.23.94,1.13,1.54,2.09,1.4,5.67-.85,11.64,3.02,13.03,8.45.26,1,1.27,1.6,2.27,1.34,1-.26,1.6-1.27,1.34-2.27-.91-3.54-3.22-6.66-6.53-8.79-2.75-1.78-5.89-2.67-8.96-2.58l-.25-27.65c0-1.83,1.49-3.33,3.33-3.33s3.33,1.49,3.33,3.33v19.71c0,1.03.83,1.86,1.86,1.86s1.86-.83,1.86-1.86v-29.29c0-1.83,1.49-3.33,3.33-3.33s3.33,1.49,3.33,3.33v29.29c0,1.03.83,1.86,1.86,1.86s1.86-.83,1.86-1.86v-24.1c0-1.83,1.49-3.33,3.33-3.33s3.33,1.49,3.33,3.33v24.1c0,1.03.83,1.86,1.86,1.86s1.86-.83,1.86-1.86v-8.43c0-1.83,1.49-3.33,3.33-3.33s3.33,1.49,3.33,3.33v24.52h0Z"/>
    </g>
  </g>
</svg>