<?xml version="1.0" encoding="UTF-8"?>
<svg id="Layer_2" data-name="Layer 2" xmlns="http://www.w3.org/2000/svg" viewBox="0 0 56.95 70.97">
  <defs>
    <style>
      .cls-1 {
        fill: #6d5da0;
        stroke-width: 0px;
      }
    </style>
  </defs>
  <g id="Capa_1" data-name="Capa 1">
    <path class="cls-1" d="M45.06,47.19c-3.21,0-6.29,1.3-8.52,3.61l-14.49-9.62c2.11-3.45,2.31-7.74.54-11.38l15-8.66c5.11,4.13,12.6,3.33,16.72-1.77,4.13-5.11,3.33-12.6-1.77-16.72-5.11-4.13-12.6-3.33-16.72,1.77-3.05,3.78-3.5,9.04-1.13,13.28l-14.77,8.53c-4.85-4.43-12.37-4.1-16.8.75-4.43,4.85-4.1,12.37.75,16.8,4.22,3.86,10.59,4.17,15.16.73l15.06,9.99c-2.53,6.06.33,13.02,6.39,15.55,6.06,2.53,13.02-.33,15.55-6.39,2.53-6.06-.33-13.02-6.39-15.55-1.45-.61-3.01-.92-4.58-.92h0ZM45.06,4.45c4.12,0,7.45,3.34,7.45,7.45s-3.34,7.45-7.45,7.45-7.45-3.34-7.45-7.45h0c0-4.12,3.34-7.45,7.45-7.45ZM4.44,35c0-4.12,3.34-7.45,7.45-7.45,4.12,0,7.45,3.34,7.45,7.45,0,4.12-3.34,7.45-7.45,7.45h0c-4.12,0-7.45-3.34-7.45-7.45ZM45.06,66.53c-4.12,0-7.45-3.34-7.45-7.45,0-4.12,3.34-7.45,7.45-7.45,4.12,0,7.45,3.34,7.45,7.45,0,4.12-3.34,7.45-7.45,7.45Z"/>
  </g>
</svg>