<?xml version="1.0" encoding="UTF-8"?>
<svg id="Layer_2" data-name="Layer 2" xmlns="http://www.w3.org/2000/svg" viewBox="0 0 62.76 62.44">
  <defs>
    <style>
      .cls-1 {
        fill: #6d5da0;
        stroke-width: 0px;
      }
    </style>
  </defs>
  <g id="Capa_1" data-name="Capa 1">
    <g>
      <path class="cls-1" d="M57.92,39.18c-.86,0-1.56.7-1.56,1.56v13.88c0,2.59-2.1,4.69-4.69,4.69H7.81c-2.59,0-4.69-2.1-4.69-4.69V13.9c0-2.59,2.1-4.69,4.69-4.69h13.88c.86,0,1.56-.7,1.56-1.56s-.7-1.56-1.56-1.56H7.81C3.5,6.09,0,9.58,0,13.9v40.73c0,4.31,3.5,7.81,7.81,7.81h43.85c4.31,0,7.81-3.5,7.81-7.81v-13.88c0-.86-.7-1.56-1.56-1.56Z"/>
      <path class="cls-1" d="M58.86,2.06c-2.75-2.75-7.2-2.75-9.95,0l-27.88,27.88c-.19.19-.33.43-.4.69l-3.67,13.24c-.15.54,0,1.12.4,1.52.4.4.98.55,1.52.4l13.24-3.67c.26-.07.5-.21.69-.4l27.88-27.88c2.74-2.75,2.74-7.2,0-9.95l-1.83-1.83ZM41.71,13.69l5.55-5.55,7.36,7.36-22.82,22.82-7.36-7.36,17.27-17.27M22.97,33.91l5.88,5.88-8.13,2.25,2.25-8.13ZM58.49,11.63l-1.66,1.66-7.36-7.36,1.66-1.66c1.53-1.53,4-1.53,5.53,0l1.83,1.83c1.52,1.53,1.52,4,0,5.53Z"/>
    </g>
  </g>
</svg>