<?xml version="1.0" encoding="UTF-8"?>
<svg id="Layer_2" data-name="Layer 2" xmlns="http://www.w3.org/2000/svg" viewBox="0 0 85.27 53.3">
  <defs>
    <style>
      .cls-1 {
        fill: #fff;
        stroke-width: 0px;
      }
    </style>
  </defs>
  <g id="Capa_1" data-name="Capa 1">
    <g>
      <path class="cls-1" d="M83.6.19c-1-.4-2.17-.15-2.92.64-2.88,3.03-8.35,4.5-16.72,4.5-7.13,0-12.26,4.22-16,7.29-2.01,1.66-4.09,3.36-5.32,3.36s-3.31-1.71-5.32-3.36c-3.74-3.08-8.87-7.29-16-7.29C12.95,5.33,7.48,3.86,4.6.83,3.84.04,2.68-.22,1.68.19.66.6,0,1.58,0,2.67c0,16.96,2.51,37.01,22.04,41.57,9.55,2.23,13.09,4.95,15.44,6.76,1.54,1.18,2.98,2.3,5.16,2.3s3.63-1.12,5.16-2.3c2.35-1.8,5.89-4.53,15.43-6.76,19.54-4.56,22.04-24.61,22.04-41.57,0-1.09-.66-2.07-1.68-2.47h0ZM62.02,39.05c-10.67,2.49-14.93,5.77-17.47,7.73-2.03,1.57-1.79,1.57-3.82,0-2.55-1.96-6.81-5.24-17.47-7.73C11.69,36.35,6.23,26.92,5.43,7.85c3.92,1.89,9.17,2.81,15.88,2.81,5.22,0,9.15,3.23,12.62,6.08,2.86,2.36,5.56,4.58,8.7,4.58s5.84-2.22,8.7-4.58c3.47-2.85,7.4-6.08,12.62-6.08,6.71,0,11.97-.92,15.88-2.81-.8,19.07-6.26,28.5-17.82,31.19h0Z"/>
      <path class="cls-1" d="M15.99,21.72s0,15.58,21.32,15.58c0-3.9,0-7.79-3.55-11.69-5.62-6.16-17.77-3.9-17.77-3.9Z"/>
      <path class="cls-1" d="M47.97,37.31c21.32,0,21.32-15.58,21.32-15.58,0,0-12.15-2.26-17.77,3.9-3.55,3.9-3.55,7.79-3.55,11.69h0Z"/>
    </g>
  </g>
</svg>