<?xml version="1.0" encoding="UTF-8"?>
<svg id="Layer_2" data-name="Layer 2" xmlns="http://www.w3.org/2000/svg" xmlns:xlink="http://www.w3.org/1999/xlink" viewBox="0 0 151.9 151.9">
  <defs>
    <style>
      .cls-1 {
        fill: url(#Degradado_sin_nombre_3);
      }

      .cls-1, .cls-2 {
        stroke-width: 0px;
      }

      .cls-2 {
        fill: #b660b6;
      }
    </style>
    <linearGradient id="Degradado_sin_nombre_3" data-name="Degradado sin nombre 3" x1="39.16" y1="145.98" x2="127.92" y2="-22.96" gradientUnits="userSpaceOnUse">
      <stop offset="0" stop-color="#fff"/>
      <stop offset="0" stop-color="#e2d2fb"/>
      <stop offset="1" stop-color="#f9dcc0"/>
    </linearGradient>
  </defs>
  <g id="Capa_1" data-name="Capa 1">
    <g>
      <circle class="cls-1" cx="75.95" cy="75.95" r="75.95"/>
      <g id="Black_line" data-name="Black line">
        <g>
          <path class="cls-2" d="M76.01,63.82c-7.33,0-13.29,5.96-13.29,13.29s5.96,13.29,13.29,13.29,13.29-5.96,13.29-13.29-5.96-13.29-13.29-13.29ZM76.01,84.3c-3.97,0-7.18-3.21-7.18-7.18s3.21-7.18,7.18-7.18,7.18,3.21,7.18,7.18-3.21,7.18-7.18,7.18Z"/>
          <path class="cls-2" d="M127.96,74.06h-8.1c-1.53-21.85-18.95-39.27-40.79-40.79v-8.1c0-1.68-1.38-3.06-3.06-3.06s-3.06,1.38-3.06,3.06v8.1c-21.85,1.53-39.27,18.95-40.79,40.79h-8.1c-1.68,0-3.06,1.38-3.06,3.06s1.38,3.06,3.06,3.06h8.1c1.53,21.85,18.95,39.27,40.79,40.79v8.1c0,1.68,1.38,3.06,3.06,3.06s3.06-1.38,3.06-3.06v-8.1c21.85-1.53,39.27-18.95,40.79-40.79h8.1c1.68,0,3.06-1.38,3.06-3.06s-1.38-3.06-3.06-3.06ZM79.06,114.7v-14.51c0-1.68-1.38-3.06-3.06-3.06s-3.06,1.38-3.06,3.06v14.51c-18.33-1.38-33.15-16.2-34.53-34.53h14.51c1.68,0,3.06-1.38,3.06-3.06s-1.38-3.06-3.06-3.06h-14.51c1.38-18.33,16.2-33.15,34.53-34.53v14.51c0,1.68,1.38,3.06,3.06,3.06s3.06-1.38,3.06-3.06v-14.51c18.33,1.38,33.15,16.2,34.53,34.53h-14.51c-1.68,0-3.06,1.38-3.06,3.06s1.38,3.06,3.06,3.06h14.51c-1.38,18.33-16.2,33.15-34.53,34.53Z"/>
        </g>
      </g>
    </g>
  </g>
</svg>