<?xml version="1.0" encoding="UTF-8"?>
<svg id="Layer_2" data-name="Layer 2" xmlns="http://www.w3.org/2000/svg" viewBox="0 0 69.21 69.21">
  <defs>
    <style>
      .cls-1 {
        fill: #fff;
        stroke-width: 0px;
      }
    </style>
  </defs>
  <g id="Capa_1" data-name="Capa 1">
    <g>
      <path class="cls-1" d="M57.68,0H11.54C5.16,0,0,5.16,0,11.54v34.61c0,6.37,5.16,11.54,11.54,11.54h8.36l12.84,10.85c1.08.91,2.65.91,3.73,0l12.85-10.85h8.36c6.37,0,11.54-5.16,11.54-11.54V11.54c0-6.37-5.16-11.54-11.54-11.54ZM63.45,46.14c0,3.19-2.58,5.77-5.77,5.77h-8.36c-1.36,0-2.68.48-3.72,1.36l-10.98,9.28-10.98-9.28h0c-1.04-.88-2.36-1.37-3.73-1.36h-8.36c-3.19,0-5.77-2.58-5.77-5.77V11.54c0-3.19,2.58-5.77,5.77-5.77h46.14c3.19,0,5.77,2.58,5.77,5.77v34.61Z"/>
      <path class="cls-1" d="M20.19,20.19h14.42c1.59,0,2.88-1.29,2.88-2.88s-1.29-2.88-2.88-2.88h-14.42c-1.59,0-2.88,1.29-2.88,2.88s1.29,2.88,2.88,2.88Z"/>
      <path class="cls-1" d="M49.03,25.95h-28.84c-1.59,0-2.88,1.29-2.88,2.88s1.29,2.88,2.88,2.88h28.84c1.59,0,2.88-1.29,2.88-2.88s-1.29-2.88-2.88-2.88Z"/>
      <path class="cls-1" d="M49.03,37.49h-28.84c-1.59,0-2.88,1.29-2.88,2.88s1.29,2.88,2.88,2.88h28.84c1.59,0,2.88-1.29,2.88-2.88s-1.29-2.88-2.88-2.88Z"/>
    </g>
  </g>
</svg>