<?xml version="1.0" encoding="UTF-8"?>
<svg id="Layer_2" data-name="Layer 2" xmlns="http://www.w3.org/2000/svg" viewBox="0 0 71.02 71.01">
  <defs>
    <style>
      .cls-1 {
        fill: #fff;
        stroke-width: 0px;
      }
    </style>
  </defs>
  <g id="Capa_1" data-name="Capa 1">
    <g>
      <path class="cls-1" d="M26.63,35.5c9.8,0,17.75-7.95,17.75-17.75S36.43,0,26.63,0,8.88,7.95,8.88,17.75c0,9.8,7.95,17.74,17.75,17.75ZM26.63,5.92c6.54,0,11.83,5.3,11.83,11.83s-5.3,11.83-11.83,11.83-11.83-5.3-11.83-11.83,5.3-11.83,11.83-11.83Z"/>
      <path class="cls-1" d="M26.63,41.42c-14.7.02-26.61,11.93-26.63,26.63,0,1.63,1.32,2.96,2.96,2.96s2.96-1.32,2.96-2.96c0-11.44,9.27-20.71,20.71-20.71s20.71,9.27,20.71,20.71c0,1.63,1.32,2.96,2.96,2.96s2.96-1.32,2.96-2.96c-.02-14.7-11.93-26.61-26.63-26.63Z"/>
      <path class="cls-1" d="M65.09,23.3c-3.43.17-6.07,3.08-5.92,6.51.16-3.43-2.49-6.34-5.92-6.51-3.43.17-6.07,3.08-5.92,6.51,0,5.12,6.67,11.12,10,13.78,1.07.86,2.6.86,3.67,0,3.33-2.66,10-8.67,10-13.78.16-3.43-2.49-6.34-5.92-6.51Z"/>
    </g>
  </g>
</svg>