<?xml version="1.0" encoding="UTF-8"?>
<svg id="Layer_2" data-name="Layer 2" xmlns="http://www.w3.org/2000/svg" viewBox="0 0 78 78">
  <defs>
    <style>
      .cls-1 {
        fill: #fff;
        stroke-width: 0px;
      }
    </style>
  </defs>
  <g id="Capa_1" data-name="Capa 1">
    <path class="cls-1" d="M46.86,54.93c1.6,1.82,2.25,4.31,1.88,7.23l-1.76,9.31c-.84,3.81-4.73,6.53-7.98,6.53s-7.06-2.72-7.87-6.43l-1.74-9.21c-.4-3.11.25-5.61,1.85-7.42,1.72-1.95,4.33-2.93,7.77-2.93s6.14.99,7.85,2.93h0ZM45.5,39c0-3.59-2.91-6.5-6.5-6.5s-6.5,2.91-6.5,6.5,2.91,6.5,6.5,6.5,6.5-2.91,6.5-6.5ZM39,0C17.49,0,0,17.49,0,39c0,13.23,6.63,25.45,17.72,32.69,1.5.98,3.52.56,4.5-.95.98-1.5.56-3.52-.95-4.5-9.25-6.03-14.77-16.22-14.77-27.24C6.5,21.08,21.08,6.5,39,6.5s32.5,14.58,32.5,32.5c0,11.03-5.52,21.21-14.77,27.24-1.5.98-1.93,3-.95,4.5.62.96,1.66,1.48,2.72,1.48.61,0,1.22-.17,1.77-.53,11.1-7.24,17.72-19.46,17.72-32.69,0-21.51-17.49-39-39-39ZM57.96,51.58c2.48-3.73,3.79-8.08,3.79-12.58,0-12.54-10.21-22.75-22.75-22.75s-22.75,10.21-22.75,22.75c0,4.34,1.31,8.64,3.78,12.42.98,1.5,2.99,1.93,4.5.94,1.5-.98,1.92-2.99.95-4.5-1.78-2.73-2.72-5.79-2.72-8.87,0-8.96,7.29-16.25,16.25-16.25s16.25,7.29,16.25,16.25c0,3.21-.94,6.32-2.71,8.98-.99,1.5-.59,3.51.91,4.51.55.37,1.18.54,1.8.54,1.05,0,2.08-.51,2.71-1.45h0Z"/>
  </g>
</svg>